<svg width="1719" height="613" viewBox="0 0 1719 613" fill="none" xmlns="http://www.w3.org/2000/svg">
<path d="M1064.13 612.47C1040.3 610.971 1018.69 602.989 1001.46 589.312C994.678 583.933 984.475 573.306 979.973 566.935C978.097 564.28 928.967 498.786 914.02 479.016C894.803 453.595 886.877 443.122 881.67 436.269C875.648 428.343 863.792 412.684 854.309 400.132C834.768 374.266 824.515 360.91 824.199 360.91C824.004 360.91 806.217 382.909 784.675 409.797C742.27 462.725 743.862 460.913 736.653 464.443C734.934 465.285 732.058 466.418 730.263 466.962C727.108 467.917 726.269 467.956 705.467 468.112C682.189 468.285 680.108 468.148 673.999 466.047C662.856 462.214 653.465 452.15 650.661 441.036C649.546 436.614 649.58 421.665 650.715 417.319C651.996 412.415 655.045 406.959 658.669 403.082C660.413 401.217 668.876 390.965 677.475 380.3C686.074 369.636 696.55 356.646 700.754 351.435C704.958 346.224 713.018 336.209 718.664 329.18C729.233 316.023 738.556 304.442 752.629 286.986C757.074 281.473 760.71 276.846 760.71 276.703C760.71 276.56 750.249 262.757 737.464 246.029C678.739 169.194 663.525 149.48 659.883 145.501C655.967 141.223 654.375 138.95 652.691 135.237C650.326 130.02 649.903 127.352 649.903 117.646C649.904 107.39 650.278 105.426 653.467 98.9331C655.182 95.443 656.169 94.1038 659.526 90.7212C663.97 86.2434 667.473 83.7876 672.254 81.7995C678.783 79.0842 679.536 79.0334 710.916 79.1913C739.051 79.3327 739.369 79.3435 742.63 80.34C746.753 81.5997 751.804 84.2132 755.047 86.765C756.964 88.2733 763.147 96.0633 781.896 120.593C795.293 138.12 812.207 160.25 819.482 169.769C829.879 183.373 832.821 186.957 833.227 186.516C833.667 186.036 864.827 147.16 900.966 102.001C911.796 88.4686 911.787 88.4771 919.388 84.6067C924.436 82.0358 927.784 80.7058 931.499 79.7955C934.254 79.1202 936.926 79.0548 956.171 79.1911C980.636 79.3647 979.837 79.2661 987.448 83.0285C996.512 87.5087 1003.91 96.0386 1006.4 104.896C1007.4 108.44 1007.82 122.355 1007.07 127.047C1006.01 133.597 1003.23 139.171 998.467 144.27C995.27 147.691 990.467 153.534 971.81 176.699C964.196 186.152 954.772 197.853 950.867 202.7C946.962 207.548 935.654 221.628 925.738 233.989C915.822 246.351 905.169 259.61 902.063 263.454C898.371 268.025 896.55 270.618 896.8 270.946C897.01 271.223 898.768 273.531 900.704 276.076C929.02 313.293 991.422 394.671 994.461 398.342C995.451 399.539 997.203 401.484 998.352 402.665C999.501 403.845 1001.04 405.683 1001.78 406.749C1003.31 408.974 1006.18 414.802 1006.18 415.684C1006.18 416.011 1009.79 421.073 1014.19 426.934C1029.08 446.724 1047.72 471.462 1055.92 482.321C1060.41 488.26 1067.15 497.184 1070.9 502.153C1074.65 507.121 1078.73 512.277 1079.98 513.611C1081.22 514.944 1083.39 517.578 1084.8 519.465C1088.97 525.04 1094.93 529.576 1101.18 531.926C1108.24 534.584 1106.7 534.465 1138.17 534.775C1169.96 535.088 1169.3 535.035 1175.86 537.825C1180.24 539.69 1183.91 542.3 1188.21 546.624C1193.82 552.26 1196.71 557.683 1197.85 564.76C1198.54 568.969 1198.42 579.432 1197.65 583.954C1196.42 591.133 1192.36 597.913 1186.06 603.325C1180.31 608.256 1173.71 611.339 1166.83 612.295C1163.78 612.72 1070.62 612.878 1064.13 612.471L1064.13 612.47Z" fill="#FF0000"/>
<path d="M167.313 469.092C147.084 467.986 127.813 462.057 112.006 452.075C102.374 445.993 90.5162 435.552 83.4413 426.923C71.6791 412.579 64.4029 395.902 61.4658 376.554C60.7526 371.856 60.6866 363.636 60.5626 264.098L60.4296 156.71L45.7843 156.541C32.2025 156.384 30.8836 156.299 27.6237 155.375C20.8307 153.451 15.7274 150.369 10.4264 144.99C5.09179 139.576 2.31098 134.271 1.0708 127.142C0.231116 122.315 0.531907 109.766 1.58921 105.527C4.48149 93.9281 15.1477 83.4363 27.6183 79.9236C30.8722 79.007 32.2473 78.9183 45.7649 78.7524L60.391 78.5724L60.5626 54.4801C60.7533 27.4876 60.7405 27.6201 63.9859 21.188C68.6894 11.8675 77.9979 4.50976 88.4306 1.86625C92.3581 0.871227 92.6739 0.861361 120.822 0.86801C148.93 0.86801 149.286 0.889382 152.772 1.8639C165.871 5.54018 176.215 15.4018 179.522 27.367C180.438 30.6815 180.486 31.8445 180.651 54.7223L180.822 78.6161L225.409 78.7532C275.39 78.9054 271.766 78.674 279.41 82.2145C290.736 87.4617 298.47 97.588 300.203 109.442C301.011 114.97 300.531 126.442 299.316 130.64C296.594 140.04 289.558 148.123 280.133 152.678C271.865 156.674 275.887 156.39 225.372 156.54L180.747 156.673L180.86 259.893L180.974 363.114L182.215 366.64C186.093 377.656 195.951 386.535 208.036 389.897C211.235 390.787 212.665 390.84 240.469 391.096L269.554 391.364L273.521 392.582C278.736 394.184 280.687 395.075 284.414 397.552C293.175 403.377 298.756 412.01 300.216 421.996C301.01 427.422 300.518 438.936 299.315 443.1C296.439 453.054 288.087 462.208 278.103 466.352C270.817 469.375 273.307 469.245 220.857 469.343C194.801 469.392 170.706 469.279 167.313 469.094L167.313 469.092Z" fill="#0083EB"/>
<path d="M1101.76 469.081C1096.63 468.624 1093.05 467.66 1088.62 465.549C1079.8 461.343 1073.16 454.542 1069.83 446.284C1067.66 440.921 1066.76 429.57 1067.89 421.79C1069.9 407.839 1080.46 396.536 1095.42 392.322L1098.94 391.328L1176.95 391.085C1254.79 390.842 1254.96 390.839 1258.17 389.906C1270.55 386.307 1280.58 377.106 1284.12 366.101C1285.5 361.83 1285.95 354.761 1285.16 349.792C1282.86 335.295 1269.93 323.073 1254.29 320.605C1252.45 320.315 1233.03 320.152 1200.22 320.149C1168.08 320.149 1146.91 319.972 1143.37 319.68C1120.19 317.764 1100.74 309.03 1085.54 293.704C1069.31 277.347 1059.9 256.817 1056.53 230.464C1055.56 222.826 1055.41 178.685 1056.34 172.072C1059.65 148.52 1069.03 129.857 1086.16 112.763C1106.24 92.7192 1129.78 81.6572 1157.78 79.1093C1161.1 78.8067 1192.62 78.6496 1249.44 78.6524C1332.32 78.6524 1336.21 78.691 1340.03 79.4811C1353.34 82.2266 1365.8 93.8469 1368.93 106.409C1369.35 108.097 1369.52 111.707 1369.51 118.308C1369.49 127.286 1369.43 127.96 1368.36 131.161C1366.45 136.834 1364.34 140.124 1359.44 145.005C1353.04 151.391 1347.94 154.205 1339.56 155.981C1336.92 156.54 1326.93 156.634 1269.48 156.64C1226.63 156.64 1201.14 156.81 1198.75 157.098C1183.91 158.889 1171.9 168.357 1167.19 181.988C1166.07 185.236 1165.97 186.051 1165.95 192.344C1165.93 198.901 1165.99 199.33 1167.31 203.036C1169.3 208.586 1171.11 211.382 1175.85 216.185C1180.74 221.146 1184.95 223.813 1191.27 225.954L1195.46 227.372L1245.47 227.647C1278.51 227.83 1296.77 228.092 1299.24 228.42C1324.72 231.799 1343.38 241.977 1358.4 260.698C1371.08 276.504 1378.24 294.836 1380.84 318.163C1381.65 325.46 1381.67 370.651 1380.87 376.335C1377.92 397.076 1370.62 413.38 1357.4 428.756C1341.52 447.234 1320.76 460.145 1297.92 465.747C1289.61 467.786 1284.04 468.56 1273.85 469.096C1264.09 469.609 1107.53 469.595 1101.76 469.075L1101.76 469.081Z" fill="#FF0000"/>
<path d="M1494.28 467.971C1479.8 464.871 1466.89 458.313 1455.79 448.419C1441.37 435.561 1432.01 419.85 1427.55 401.018L1426.41 396.166L1426.28 248.11C1426.16 112.15 1426.21 99.8718 1426.87 97.8329C1428.3 93.3996 1430.24 90.4094 1434.3 86.3495C1438.62 82.0316 1441.73 80.1566 1446.87 78.7615C1449.42 78.0703 1452.05 77.9844 1470.67 77.9844C1487.1 77.9844 1492.12 78.1173 1494.02 78.5982C1502.31 80.695 1509.44 86.5698 1513.33 94.5104L1514.96 97.8157L1515.04 241.923C1515.08 321.182 1515.23 386.871 1515.36 387.898C1515.93 392.362 1521.68 399.836 1525.95 401.664C1528.01 402.55 1528.66 402.557 1612.81 402.557H1697.58L1701.33 403.815C1708.92 406.367 1714.8 410.969 1717.52 416.504L1719 419.505V435.834C1719 451.098 1718.94 452.292 1718.13 454.132C1716.05 458.868 1711.6 463.14 1705.78 465.998C1698.91 469.369 1708.14 469.107 1597.96 469.051L1499.09 469.002L1494.28 467.972L1494.28 467.971Z" fill="#FF0000"/>
<path d="M466.766 146.289C401.671 146.289 400.701 146.315 391.126 148.285C377.124 151.166 364.886 156.664 353.507 165.185C348.509 168.927 339.901 177.17 336.193 181.765C327.241 192.857 321.556 205.239 319.049 219.104L318.031 224.733V307.584V390.434L319 395.723C322.142 412.877 329.137 426.358 341.609 439.292C357.901 456.189 377.72 465.874 401.102 468.365C401.951 468.455 432.094 468.502 468.088 468.47C540.851 468.404 535.207 468.624 547.633 465.368C564.119 461.048 579.74 451.702 591.84 438.919C605.66 424.319 613.252 407.582 614.822 388.247C615.449 380.521 615.44 233.736 614.822 226.496C613.013 205.656 604.113 187.647 588.181 172.59C573.047 158.287 555.492 149.928 534.643 147.097C529.11 146.346 524.354 146.289 466.775 146.289L466.766 146.289ZM473.896 210.905C491.975 210.86 493.211 211.241 498.657 213.892C506.9 217.904 512.874 224.931 515.008 233.121C516.009 236.966 516.021 379.253 515.029 383.498C512.427 394.532 502.14 403.659 490.103 405.612C487.411 406.049 446.223 406.183 443.198 405.765C433.476 404.42 423.954 397.686 419.708 389.154C416.834 383.38 416.99 388.005 416.983 308.425C416.983 237.372 416.983 236.052 417.864 232.641C419.041 228.037 421.669 223.684 425.565 219.885C429.301 216.242 433.064 213.922 437.909 212.273L441.435 211.074L465.065 210.945C468.396 210.924 471.322 210.913 473.905 210.907L473.896 210.905Z" fill="#0083EB"/>
</svg>
